<svg width="24" height="24" viewBox="0 0 24 24" fill="none" xmlns="http://www.w3.org/2000/svg">
<mask id="mask0_1852_43261" style="mask-type:alpha" maskUnits="userSpaceOnUse" x="0" y="0" width="24" height="24">
<rect width="24" height="24" fill="#D9D9D9"/>
</mask>
<g mask="url(#mask0_1852_43261)">
<path d="M17 17C17.4167 17 17.7708 16.8542 18.0625 16.5625C18.3542 16.2709 18.5 15.9167 18.5 15.5C18.5 15.0834 18.3542 14.7292 18.0625 14.4375C17.7708 14.1459 17.4167 14 17 14C16.5833 14 16.2292 14.1459 15.9375 14.4375C15.6458 14.7292 15.5 15.0834 15.5 15.5C15.5 15.9167 15.6458 16.2709 15.9375 16.5625C16.2292 16.8542 16.5833 17 17 17ZM17 20C17.5167 20 17.9917 19.8792 18.425 19.6375C18.8583 19.3959 19.2083 19.075 19.475 18.675C19.1083 18.4584 18.7167 18.2917 18.3 18.175C17.8833 18.0584 17.45 18 17 18C16.55 18 16.1167 18.0584 15.7 18.175C15.2833 18.2917 14.8917 18.4584 14.525 18.675C14.7917 19.075 15.1417 19.3959 15.575 19.6375C16.0083 19.8792 16.4833 20 17 20ZM17 22C15.6167 22 14.4375 21.5125 13.4625 20.5375C12.4875 19.5625 12 18.3834 12 17C12 15.6167 12.4875 14.4375 13.4625 13.4625C14.4375 12.4875 15.6167 12 17 12C18.3833 12 19.5625 12.4875 20.5375 13.4625C21.5125 14.4375 22 15.6167 22 17C22 18.3834 21.5125 19.5625 20.5375 20.5375C19.5625 21.5125 18.3833 22 17 22ZM11.7625 21.925C11.6875 21.925 11.6083 21.9084 11.525 21.875C9.34167 21.2084 7.54167 19.8584 6.125 17.825C4.70833 15.7917 4 13.55 4 11.1V6.37502C4 5.95836 4.12083 5.58336 4.3625 5.25002C4.60417 4.91669 4.91667 4.67502 5.3 4.52502L11.3 2.27502C11.5333 2.19169 11.7667 2.15002 12 2.15002C12.2333 2.15002 12.4667 2.19169 12.7 2.27502L18.7 4.52502C19.0833 4.67502 19.3958 4.91669 19.6375 5.25002C19.8792 5.58336 20 5.95836 20 6.37502V10.675C19.5167 10.4584 19.0292 10.2917 18.5375 10.175C18.0458 10.0584 17.5333 10 17 10C15.0667 10 13.4167 10.6834 12.05 12.05C10.6833 13.4167 10 15.0667 10 17C10 17.95 10.1667 18.8375 10.5 19.6625C10.8333 20.4875 11.3417 21.2417 12.025 21.925H11.7625Z" fill="#0F0F0F"/>
</g>
</svg>
