<svg width="24" height="24" viewBox="0 0 24 24" fill="none" xmlns="http://www.w3.org/2000/svg">
<mask id="mask0_1852_43262" style="mask-type:alpha" maskUnits="userSpaceOnUse" x="0" y="0" width="24" height="24">
<rect width="24" height="24" fill="#D9D9D9"/>
</mask>
<g mask="url(#mask0_1852_43262)">
<path d="M13.0004 12.6V9.00002C13.0004 8.71669 12.9046 8.47919 12.7129 8.28752C12.5212 8.09586 12.2837 8.00002 12.0004 8.00002C11.7171 8.00002 11.4796 8.09586 11.2879 8.28752C11.0962 8.47919 11.0004 8.71669 11.0004 9.00002V12.975C11.0004 13.1084 11.0254 13.2375 11.0754 13.3625C11.1254 13.4875 11.2004 13.6 11.3004 13.7L14.1004 16.5C14.2837 16.6834 14.5171 16.775 14.8004 16.775C15.0837 16.775 15.3171 16.6834 15.5004 16.5C15.6837 16.3167 15.7754 16.0834 15.7754 15.8C15.7754 15.5167 15.6837 15.2834 15.5004 15.1L13.0004 12.6ZM12.0004 22C10.7504 22 9.57956 21.7625 8.48789 21.2875C7.39622 20.8125 6.44622 20.1709 5.63789 19.3625C4.82956 18.5542 4.18789 17.6042 3.71289 16.5125C3.23789 15.4209 3.00039 14.25 3.00039 13C3.00039 11.75 3.23789 10.5792 3.71289 9.48752C4.18789 8.39586 4.82956 7.44586 5.63789 6.63752C6.44622 5.82919 7.39622 5.18752 8.48789 4.71252C9.57956 4.23752 10.7504 4.00002 12.0004 4.00002C13.2504 4.00002 14.4212 4.23752 15.5129 4.71252C16.6046 5.18752 17.5546 5.82919 18.3629 6.63752C19.1712 7.44586 19.8129 8.39586 20.2879 9.48752C20.7629 10.5792 21.0004 11.75 21.0004 13C21.0004 14.25 20.7629 15.4209 20.2879 16.5125C19.8129 17.6042 19.1712 18.5542 18.3629 19.3625C17.5546 20.1709 16.6046 20.8125 15.5129 21.2875C14.4212 21.7625 13.2504 22 12.0004 22ZM2.05039 7.30002C1.86706 7.11669 1.77539 6.88336 1.77539 6.60002C1.77539 6.31669 1.86706 6.08336 2.05039 5.90002L4.90039 3.05002C5.08372 2.86669 5.31706 2.77502 5.60039 2.77502C5.88372 2.77502 6.11706 2.86669 6.30039 3.05002C6.48372 3.23336 6.57539 3.46669 6.57539 3.75002C6.57539 4.03336 6.48372 4.26669 6.30039 4.45002L3.45039 7.30002C3.26706 7.48336 3.03372 7.57502 2.75039 7.57502C2.46706 7.57502 2.23372 7.48336 2.05039 7.30002ZM21.9504 7.30002C21.7671 7.48336 21.5337 7.57502 21.2504 7.57502C20.9671 7.57502 20.7337 7.48336 20.5504 7.30002L17.7004 4.45002C17.5171 4.26669 17.4254 4.03336 17.4254 3.75002C17.4254 3.46669 17.5171 3.23336 17.7004 3.05002C17.8837 2.86669 18.1171 2.77502 18.4004 2.77502C18.6837 2.77502 18.9171 2.86669 19.1004 3.05002L21.9504 5.90002C22.1337 6.08336 22.2254 6.31669 22.2254 6.60002C22.2254 6.88336 22.1337 7.11669 21.9504 7.30002Z" fill="#0F0F0F"/>
</g>
</svg>
