<svg width="24" height="24" viewBox="0 0 24 24" fill="none" xmlns="http://www.w3.org/2000/svg">
<g clip-path="url(#clip0_1925_8444)">
<path d="M9.75781 20.7149C8.74219 20.5117 8.08203 19.5235 8.28516 18.5078L8.375 18.0625C8.58203 17.0196 8.96484 16.0274 9.5 15.125L3.875 15.125C2.83984 15.125 2 14.2852 2 13.25C2 12.5274 2.41016 11.8985 3.01172 11.586C2.58594 11.2422 2.3125 10.7149 2.3125 10.125C2.3125 9.21096 2.96875 8.44924 3.83203 8.28518C3.66016 8.00002 3.5625 7.66799 3.5625 7.31252C3.5625 6.48049 4.10547 5.77346 4.85547 5.53127C4.82813 5.40237 4.8125 5.26565 4.8125 5.12502C4.8125 4.08987 5.65235 3.25002 6.6875 3.25002L10.4961 3.25002C11.2383 3.25002 11.9609 3.46877 12.5781 3.87893L14.082 4.88284C15.125 5.57815 15.75 6.75002 15.75 8.00393L15.75 9.50002L15.75 11.375L15.75 12.3477C15.75 13.4883 15.2305 14.5625 14.3438 15.2774L14.0547 15.5078C13.0195 16.336 12.3125 17.5 12.0547 18.7969L11.9648 19.2422C11.7617 20.2578 10.7734 20.918 9.75781 20.7149ZM20.75 14.5L18.25 14.5C17.5586 14.5 17 13.9414 17 13.25L17 4.50002C17 3.80862 17.5586 3.25002 18.25 3.25002L20.75 3.25002C21.4414 3.25002 22 3.80862 22 4.50002L22 13.25C22 13.9414 21.4414 14.5 20.75 14.5Z" fill="#0F0F0F"/>
</g>
<defs>
<clipPath id="clip0_1925_8444">
<rect width="20" height="20" fill="white" transform="translate(22 22) rotate(-180)"/>
</clipPath>
</defs>
</svg>
