<svg width="24" height="24" viewBox="0 0 24 24" fill="none" xmlns="http://www.w3.org/2000/svg">
<path d="M22 11.3571C22 15.9737 17.5237 19.7143 12.0006 19.7143C10.5514 19.7143 9.17652 19.4571 7.93441 18.9951C7.46959 19.3446 6.71182 19.8228 5.81344 20.2246C4.87599 20.6424 3.74715 21 2.62612 21C2.37223 21 2.14568 20.8433 2.04803 20.6022C1.95038 20.3612 2.00506 20.0879 2.18084 19.9031L2.19255 19.8911C2.20427 19.879 2.2199 19.8629 2.24333 19.8348C2.2863 19.7866 2.3527 19.7103 2.43473 19.6058C2.59487 19.4049 2.80971 19.1076 3.02844 18.7379C3.41904 18.071 3.79012 17.1951 3.86433 16.2107C2.69252 14.8446 2.00116 13.1692 2.00116 11.3571C2.00116 6.74062 6.47746 3 12.0006 3C17.5237 3 22 6.74062 22 11.3571Z" fill="#0F0F0F"/>
</svg>
