<svg width="24" height="24" viewBox="0 0 24 24" fill="none" xmlns="http://www.w3.org/2000/svg">
<mask id="mask0_2140_34789" style="mask-type:alpha" maskUnits="userSpaceOnUse" x="0" y="0" width="24" height="24">
<rect width="24" height="24" fill="#D9D9D9"/>
</mask>
<g mask="url(#mask0_2140_34789)">
<path d="M8.50909 7.94737L11.813 1.5H12.187L15.4909 7.94737H8.50909ZM11.0649 22.5L0.311688 9.78947H11.0649V22.5ZM12.9351 22.5V9.78947H23.6883L12.9351 22.5ZM17.5481 7.94737L14.3065 1.5H19.2C19.6779 1.5 20.1091 1.62281 20.4935 1.86842C20.8779 2.11404 21.1844 2.44152 21.413 2.85088L24 7.94737H17.5481ZM0 7.94737L2.58701 2.85088C2.81558 2.44152 3.12208 2.11404 3.50649 1.86842C3.89091 1.62281 4.32208 1.5 4.8 1.5H9.69351L6.45195 7.94737H0Z" fill="#0F0F0F"/>
</g>
</svg>
