<svg width="24" height="24" viewBox="0 0 24 24" fill="none" xmlns="http://www.w3.org/2000/svg">
<mask id="mask0_1852_43263" style="mask-type:alpha" maskUnits="userSpaceOnUse" x="0" y="0" width="24" height="24">
<rect width="24" height="24" fill="#D9D9D9"/>
</mask>
<g mask="url(#mask0_1852_43263)">
<path d="M6.85 15C7.36667 15 7.82917 14.85 8.2375 14.55C8.64583 14.25 8.93333 13.8583 9.1 13.375L9.475 12.225C9.74167 11.425 9.675 10.6875 9.275 10.0125C8.875 9.3375 8.3 9 7.55 9H4.025L4.5 12.925C4.58333 13.5083 4.84583 14 5.2875 14.4C5.72917 14.8 6.25 15 6.85 15ZM17.15 15C17.75 15 18.2708 14.8 18.7125 14.4C19.1542 14 19.4167 13.5083 19.5 12.925L19.975 9H16.475C15.725 9 15.15 9.34167 14.75 10.025C14.35 10.7083 14.2833 11.45 14.55 12.25L14.9 13.375C15.0667 13.8583 15.3542 14.25 15.7625 14.55C16.1708 14.85 16.6333 15 17.15 15ZM6.85 17C5.75 17 4.7875 16.6375 3.9625 15.9125C3.1375 15.1875 2.65833 14.275 2.525 13.175L2 9C1.71667 9 1.47917 8.90417 1.2875 8.7125C1.09583 8.52083 1 8.28333 1 8C1 7.71667 1.09583 7.47917 1.2875 7.2875C1.47917 7.09583 1.71667 7 2 7H7.55C8.28333 7 8.95417 7.17917 9.5625 7.5375C10.1708 7.89583 10.65 8.38333 11 9H13.025C13.375 8.38333 13.8542 7.89583 14.4625 7.5375C15.0708 7.17917 15.7417 7 16.475 7H22C22.2833 7 22.5208 7.09583 22.7125 7.2875C22.9042 7.47917 23 7.71667 23 8C23 8.28333 22.9042 8.52083 22.7125 8.7125C22.5208 8.90417 22.2833 9 22 9L21.475 13.175C21.3417 14.275 20.8625 15.1875 20.0375 15.9125C19.2125 16.6375 18.25 17 17.15 17C16.2 17 15.3458 16.7292 14.5875 16.1875C13.8292 15.6458 13.3 14.925 13 14.025L12.625 12.9C12.5917 12.7833 12.5583 12.6625 12.525 12.5375C12.4917 12.4125 12.4583 12.2333 12.425 12H11.575C11.5417 12.2 11.5083 12.3625 11.475 12.4875C11.4417 12.6125 11.4083 12.7333 11.375 12.85L11 14C10.7 14.9 10.1708 15.625 9.4125 16.175C8.65417 16.725 7.8 17 6.85 17Z" fill="#0F0F0F"/>
</g>
</svg>
