<svg width="24" height="24" viewBox="0 0 24 24" fill="none" xmlns="http://www.w3.org/2000/svg">
<path d="M14.2422 3.28513C15.2578 3.48826 15.918 4.47654 15.7148 5.49216L15.625 5.93748C15.418 6.98044 15.0352 7.97263 14.5 8.87498H20.125C21.1602 8.87498 22 9.71482 22 10.75C22 11.4726 21.5898 12.1015 20.9883 12.414C21.4141 12.7578 21.6875 13.2851 21.6875 13.875C21.6875 14.789 21.0312 15.5508 20.168 15.7148C20.3398 16 20.4375 16.332 20.4375 16.6875C20.4375 17.5195 19.8945 18.2265 19.1445 18.4687C19.1719 18.5976 19.1875 18.7344 19.1875 18.875C19.1875 19.9101 18.3477 20.75 17.3125 20.75H13.5039C12.7617 20.75 12.0391 20.5312 11.4219 20.1211L9.91797 19.1172C8.875 18.4219 8.25 17.25 8.25 15.9961V14.5V12.625V11.6523C8.25 10.5117 8.76953 9.43748 9.65625 8.72263L9.94531 8.49216C10.9805 7.66404 11.6875 6.49998 11.9453 5.2031L12.0352 4.75779C12.2383 3.74216 13.2266 3.08201 14.2422 3.28513ZM3.25 9.49998H5.75C6.44141 9.49998 7 10.0586 7 10.75V19.5C7 20.1914 6.44141 20.75 5.75 20.75H3.25C2.55859 20.75 2 20.1914 2 19.5V10.75C2 10.0586 2.55859 9.49998 3.25 9.49998Z" fill="#0F0F0F"/>
</svg>
