<svg width="24" height="24" viewBox="0 0 24 24" fill="none" xmlns="http://www.w3.org/2000/svg">
<g clip-path="url(#clip0_1852_98180)">
<path d="M18.5895 24H5.4105C2.4225 24 0 21.5775 0 18.5895V5.4105C0 2.4225 2.4225 0 5.4105 0H18.5895C21.5775 0 24 2.4225 24 5.4105V18.5895C24 21.5775 21.5775 24 18.5895 24Z" fill="#06C755"/>
<path d="M19.9957 10.869C19.9957 7.28855 16.4062 4.37555 11.9939 4.37555C7.58243 4.37555 3.99219 7.28855 3.99219 10.869C3.99219 14.079 6.83919 16.7671 10.6844 17.2756C10.9447 17.3318 11.2994 17.4473 11.3894 17.67C11.4704 17.8725 11.4419 18.189 11.4157 18.3938C11.4157 18.3938 11.3219 18.9586 11.3017 19.0786C11.2664 19.2811 11.1412 19.8698 11.9947 19.5098C12.8489 19.1498 16.6027 16.7963 18.2812 14.8643C19.4399 13.5931 19.9957 12.3023 19.9957 10.869Z" fill="white"/>
<path d="M17.3363 12.9368H15.0915H15.0885C15.0038 12.9368 14.9355 12.8685 14.9355 12.7838V12.7815V9.29553V9.29253C14.9355 9.20778 15.0038 9.13953 15.0885 9.13953H15.0915H17.3363C17.4203 9.13953 17.4893 9.20853 17.4893 9.29253V9.86028C17.4893 9.94503 17.421 10.0133 17.3363 10.0133H15.8085V10.6028H17.3363C17.4203 10.6028 17.4893 10.6718 17.4893 10.7558V11.3235C17.4893 11.4083 17.421 11.4765 17.3363 11.4765H15.8085V12.066H17.3363C17.4203 12.066 17.4893 12.135 17.4893 12.219V12.7868C17.4893 12.8685 17.421 12.9368 17.3363 12.9368Z" fill="#06C755"/>
<path d="M9.01868 12.9368C9.10268 12.9368 9.17169 12.8686 9.17169 12.7838V12.2161C9.17169 12.1321 9.10268 12.0631 9.01868 12.0631H7.49093V9.29106C7.49093 9.20706 7.42194 9.13806 7.33794 9.13806H6.77019C6.68544 9.13806 6.61719 9.20631 6.61719 9.29106V12.7808V12.7831C6.61719 12.8678 6.68544 12.9361 6.77019 12.9361H6.77318H9.01868V12.9368Z" fill="#06C755"/>
<path d="M10.3702 9.13879H9.80242C9.71842 9.13879 9.64941 9.20705 9.64941 9.2918V12.7838C9.64941 12.8678 9.71767 12.9368 9.80242 12.9368H10.3702C10.4549 12.9368 10.5232 12.8685 10.5232 12.7838V9.2918C10.5232 9.2078 10.4549 9.13879 10.3702 9.13879Z" fill="#06C755"/>
<path d="M14.2346 9.13879H13.6668C13.5821 9.13879 13.5138 9.20705 13.5138 9.2918V11.3655L11.9163 9.2078C11.9126 9.20255 11.9081 9.1973 11.9043 9.19205L11.9036 9.19129C11.9006 9.18829 11.8976 9.18454 11.8946 9.18154C11.8938 9.18079 11.8923 9.18005 11.8916 9.1793C11.8886 9.17705 11.8863 9.17479 11.8833 9.17254C11.8818 9.17179 11.8803 9.1703 11.8788 9.16955C11.8766 9.1673 11.8736 9.1658 11.8706 9.1643C11.8691 9.16355 11.8676 9.16205 11.8661 9.1613C11.8631 9.1598 11.8608 9.1583 11.8578 9.1568C11.8563 9.15605 11.8548 9.1553 11.8533 9.15455C11.8503 9.15305 11.8473 9.15155 11.8443 9.1508C11.8428 9.15005 11.8413 9.1493 11.8391 9.1493C11.8361 9.14855 11.8331 9.14705 11.8301 9.1463C11.8286 9.14555 11.8263 9.14555 11.8248 9.1448C11.8218 9.14405 11.8188 9.1433 11.8158 9.14255C11.8136 9.1418 11.8113 9.1418 11.8091 9.1418C11.8061 9.14105 11.8038 9.14105 11.8008 9.14105C11.7978 9.14105 11.7956 9.14105 11.7926 9.1403C11.7911 9.1403 11.7888 9.1403 11.7873 9.1403H11.2233C11.1393 9.1403 11.0703 9.20854 11.0703 9.29329V12.7853C11.0703 12.8693 11.1386 12.9383 11.2233 12.9383H11.7911C11.8758 12.9383 11.9441 12.87 11.9441 12.7853V10.7115L13.5438 12.8723C13.5551 12.888 13.5686 12.9008 13.5836 12.9105C13.5843 12.9113 13.5851 12.9113 13.5851 12.912C13.5881 12.9143 13.5911 12.9158 13.5948 12.918C13.5963 12.9188 13.5978 12.9195 13.5993 12.9203C13.6016 12.9218 13.6046 12.9225 13.6068 12.924C13.6091 12.9255 13.6121 12.9263 13.6143 12.927C13.6158 12.9278 13.6173 12.9285 13.6188 12.9285C13.6226 12.93 13.6256 12.9308 13.6293 12.9315C13.6301 12.9315 13.6308 12.9323 13.6316 12.9323C13.6443 12.9353 13.6578 12.9375 13.6713 12.9375H14.2353C14.3193 12.9375 14.3883 12.8693 14.3883 12.7845V9.29255C14.3876 9.2078 14.3193 9.13879 14.2346 9.13879Z" fill="#06C755"/>
</g>
<defs>
<clipPath id="clip0_1852_98180">
<rect width="24" height="24" fill="white"/>
</clipPath>
</defs>
</svg>
