<svg width="24" height="24" viewBox="0 0 24 24" fill="none" xmlns="http://www.w3.org/2000/svg">
<mask id="mask0_1958_13417" style="mask-type:alpha" maskUnits="userSpaceOnUse" x="0" y="0" width="24" height="24">
<rect width="24" height="24" fill="#D9D9D9"/>
</mask>
<g mask="url(#mask0_1958_13417)">
<path d="M11.7635 21.9248C11.6885 21.9248 11.6093 21.9081 11.526 21.8748C9.34264 21.2081 7.54264 19.8581 6.12598 17.8248C4.70931 15.7915 4.00098 13.5498 4.00098 11.0998V6.37481C4.00098 5.95814 4.12181 5.58314 4.36348 5.24981C4.60514 4.91648 4.91764 4.67481 5.30098 4.52481L11.301 2.27481C11.5343 2.19148 11.7676 2.14981 12.001 2.14981C12.2343 2.14981 12.4676 2.19148 12.701 2.27481L18.701 4.52481C19.0843 4.67481 19.3968 4.91648 19.6385 5.24981C19.8801 5.58314 20.001 5.95814 20.001 6.37481V10.6748C19.6843 10.5415 19.3593 10.4206 19.026 10.3123C18.6926 10.204 18.351 10.1248 18.001 10.0748V6.39981L12.001 4.14981L6.00098 6.39981V11.0998C6.00098 11.8831 6.10514 12.6665 6.31348 13.4498C6.52181 14.2331 6.81348 14.979 7.18848 15.6873C7.56348 16.3956 8.01764 17.0498 8.55098 17.6498C9.08431 18.2498 9.67598 18.7498 10.326 19.1498C10.5093 19.6831 10.7426 20.1831 11.026 20.6498C11.3093 21.1165 11.6426 21.5415 12.026 21.9248H11.7635ZM17.001 21.9998C15.6176 21.9998 14.4385 21.5123 13.4635 20.5373C12.4885 19.5623 12.001 18.3831 12.001 16.9998C12.001 15.6165 12.4885 14.4373 13.4635 13.4623C14.4385 12.4873 15.6176 11.9998 17.001 11.9998C18.3843 11.9998 19.5635 12.4873 20.5385 13.4623C21.5135 14.4373 22.001 15.6165 22.001 16.9998C22.001 18.3831 21.5135 19.5623 20.5385 20.5373C19.5635 21.5123 18.3843 21.9998 17.001 21.9998ZM17.001 19.9998C17.1343 19.9998 17.251 19.9498 17.351 19.8498C17.451 19.7498 17.501 19.6331 17.501 19.4998V17.4998H19.501C19.6343 17.4998 19.751 17.4498 19.851 17.3498C19.951 17.2498 20.001 17.1331 20.001 16.9998C20.001 16.8665 19.951 16.7498 19.851 16.6498C19.751 16.5498 19.6343 16.4998 19.501 16.4998H17.501V14.4998C17.501 14.3665 17.451 14.2498 17.351 14.1498C17.251 14.0498 17.1343 13.9998 17.001 13.9998C16.8676 13.9998 16.751 14.0498 16.651 14.1498C16.551 14.2498 16.501 14.3665 16.501 14.4998V16.4998H14.501C14.3676 16.4998 14.251 16.5498 14.151 16.6498C14.051 16.7498 14.001 16.8665 14.001 16.9998C14.001 17.1331 14.051 17.2498 14.151 17.3498C14.251 17.4498 14.3676 17.4998 14.501 17.4998H16.501V19.4998C16.501 19.6331 16.551 19.7498 16.651 19.8498C16.751 19.9498 16.8676 19.9998 17.001 19.9998Z" fill="#0F0F0F"/>
</g>
</svg>
