<svg width="24" height="24" viewBox="0 0 24 24" fill="none" xmlns="http://www.w3.org/2000/svg">
<mask id="mask0_1852_43113" style="mask-type:alpha" maskUnits="userSpaceOnUse" x="0" y="0" width="24" height="24">
<rect width="24" height="24" fill="#D9D9D9"/>
</mask>
<g mask="url(#mask0_1852_43113)">
<path d="M15.1248 21.1L6.6998 12.7C6.5998 12.6 6.52897 12.4917 6.4873 12.375C6.44564 12.2583 6.4248 12.1333 6.4248 12C6.4248 11.8667 6.44564 11.7417 6.4873 11.625C6.52897 11.5083 6.5998 11.4 6.6998 11.3L15.1248 2.87499C15.3581 2.64166 15.6498 2.52499 15.9998 2.52499C16.3498 2.52499 16.6498 2.64999 16.8998 2.89999C17.1498 3.14999 17.2748 3.44166 17.2748 3.77499C17.2748 4.10833 17.1498 4.39999 16.8998 4.64999L9.5498 12L16.8998 19.35C17.1331 19.5833 17.2498 19.8708 17.2498 20.2125C17.2498 20.5542 17.1248 20.85 16.8748 21.1C16.6248 21.35 16.3331 21.475 15.9998 21.475C15.6665 21.475 15.3748 21.35 15.1248 21.1Z" fill="#0F0F0F"/>
</g>
</svg>
