<svg width="24" height="24" viewBox="0 0 24 24" fill="none" xmlns="http://www.w3.org/2000/svg">
<mask id="mask0_1891_8274" style="mask-type:alpha" maskUnits="userSpaceOnUse" x="0" y="0" width="24" height="24">
<rect width="24" height="24" fill="#D9D9D9"/>
</mask>
<g mask="url(#mask0_1891_8274)">
<path d="M9.55015 17.575C9.41682 17.575 9.29182 17.5542 9.17515 17.5125C9.05849 17.4708 8.95015 17.4 8.85015 17.3L4.55015 13C4.36682 12.8167 4.27932 12.5792 4.28765 12.2875C4.29599 11.9958 4.39182 11.7583 4.57515 11.575C4.75849 11.3917 4.99182 11.3 5.27515 11.3C5.55849 11.3 5.79182 11.3917 5.97515 11.575L9.55015 15.15L18.0252 6.67499C18.2085 6.49166 18.446 6.39999 18.7377 6.39999C19.0293 6.39999 19.2668 6.49166 19.4502 6.67499C19.6335 6.85833 19.7252 7.09583 19.7252 7.38749C19.7252 7.67916 19.6335 7.91666 19.4502 8.09999L10.2502 17.3C10.1502 17.4 10.0418 17.4708 9.92515 17.5125C9.80849 17.5542 9.68349 17.575 9.55015 17.575Z" fill="#0F0F0F"/>
</g>
</svg>
