<svg width="24" height="24" viewBox="0 0 24 24" fill="none" xmlns="http://www.w3.org/2000/svg">
<path d="M6.83197 17.4329C7.33574 17.0553 7.98792 16.9589 8.57371 17.1759C9.60861 17.5615 10.7685 17.7824 12.0025 17.7824C16.8724 17.7824 20.1255 14.5488 20.1255 11.3553C20.1255 8.16179 16.8724 4.92814 12.0025 4.92814C7.13267 4.92814 3.87959 8.16179 3.87959 11.3553C3.87959 12.6407 4.36384 13.8779 5.27377 14.9384C5.60962 15.3281 5.77364 15.8422 5.73459 16.3644C5.67991 17.0915 5.51199 17.7583 5.29329 18.3488C5.95719 18.0315 6.50783 17.678 6.83197 17.437V17.4329ZM2.83298 19.0638C2.90327 18.9554 2.96966 18.8469 3.03215 18.7385C3.42267 18.0716 3.79367 17.1959 3.86787 16.2118C2.69629 14.842 2.00506 13.1669 2.00506 11.3553C2.00506 6.73979 6.48049 3 12.0025 3C17.5246 3 22 6.73979 22 11.3553C22 15.9708 17.5246 19.7106 12.0025 19.7106C10.5537 19.7106 9.17903 19.4535 7.93716 18.9915C7.47243 19.341 6.71481 19.819 5.8166 20.2207C5.2269 20.4858 4.5552 20.7268 3.86006 20.8674C3.82882 20.8755 3.79758 20.8795 3.76634 20.8875C3.5945 20.9197 3.42658 20.9478 3.25084 20.9638C3.24303 20.9638 3.23132 20.9679 3.2235 20.9679C3.02434 20.9879 2.82517 21 2.626 21C2.37216 21 2.14565 20.8433 2.04802 20.6023C1.95039 20.3613 2.00506 20.0881 2.1808 19.9034C2.34092 19.7347 2.48541 19.5539 2.62209 19.3611C2.68848 19.2687 2.75097 19.1763 2.80955 19.0839C2.81345 19.0759 2.81736 19.0719 2.82126 19.0638H2.83298Z" fill="#0F0F0F"/>
</svg>
