<svg width="24" height="24" viewBox="0 0 24 24" fill="none" xmlns="http://www.w3.org/2000/svg">
<mask id="mask0_1877_6896" style="mask-type:alpha" maskUnits="userSpaceOnUse" x="0" y="0" width="24" height="24">
<rect width="24" height="24" fill="#D9D9D9"/>
</mask>
<g mask="url(#mask0_1877_6896)">
<path d="M6.6998 14.675C6.51647 14.4917 6.4248 14.2583 6.4248 13.975C6.4248 13.6917 6.51647 13.4583 6.6998 13.275L11.2998 8.67499C11.3998 8.57499 11.5081 8.50416 11.6248 8.46249C11.7415 8.42083 11.8665 8.39999 11.9998 8.39999C12.1331 8.39999 12.2581 8.42083 12.3748 8.46249C12.4915 8.50416 12.5998 8.57499 12.6998 8.67499L17.3248 13.3C17.5081 13.4833 17.5998 13.7083 17.5998 13.975C17.5998 14.2417 17.4998 14.475 17.2998 14.675C17.1165 14.8583 16.8831 14.95 16.5998 14.95C16.3165 14.95 16.0831 14.8583 15.8998 14.675L11.9998 10.775L8.0748 14.7C7.89147 14.8833 7.66647 14.975 7.3998 14.975C7.13314 14.975 6.8998 14.875 6.6998 14.675Z" fill="#0F0F0F"/>
</g>
</svg>
