<svg width="24" height="24" viewBox="0 0 24 24" fill="none" xmlns="http://www.w3.org/2000/svg">
<mask id="mask0_1852_75755" style="mask-type:alpha" maskUnits="userSpaceOnUse" x="0" y="0" width="24" height="24">
<rect width="24" height="24" fill="#D9D9D9"/>
</mask>
<g mask="url(#mask0_1852_75755)">
<path d="M5.375 10C5.00833 10 4.725 9.87917 4.525 9.6375C4.325 9.39583 4.275 9.10833 4.375 8.775C4.825 7.375 5.65 6.22917 6.85 5.3375C8.05 4.44583 9.43333 4 11 4C11.9833 4 12.9042 4.1875 13.7625 4.5625C14.6208 4.9375 15.3667 5.45 16 6.1V5C16 4.71667 16.0958 4.47917 16.2875 4.2875C16.4792 4.09583 16.7167 4 17 4C17.2833 4 17.5208 4.09583 17.7125 4.2875C17.9042 4.47917 18 4.71667 18 5V9C18 9.28333 17.9042 9.52083 17.7125 9.7125C17.5208 9.90417 17.2833 10 17 10H13C12.7167 10 12.4792 9.90417 12.2875 9.7125C12.0958 9.52083 12 9.28333 12 9C12 8.71667 12.0958 8.47917 12.2875 8.2875C12.4792 8.09583 12.7167 8 13 8H15C14.5167 7.4 13.9375 6.91667 13.2625 6.55C12.5875 6.18333 11.8333 6 11 6C9.91667 6 8.94167 6.30833 8.075 6.925C7.20833 7.54167 6.60833 8.34167 6.275 9.325C6.20833 9.525 6.09167 9.6875 5.925 9.8125C5.75833 9.9375 5.575 10 5.375 10ZM18.9 20.3L15.2 16.6C14.6 17.05 13.9458 17.3958 13.2375 17.6375C12.5292 17.8792 11.7833 18 11 18C10.0167 18 9.09583 17.8125 8.2375 17.4375C7.37917 17.0625 6.63333 16.55 6 15.9V17C6 17.2833 5.90417 17.5208 5.7125 17.7125C5.52083 17.9042 5.28333 18 5 18C4.71667 18 4.47917 17.9042 4.2875 17.7125C4.09583 17.5208 4 17.2833 4 17V13C4 12.7167 4.09583 12.4792 4.2875 12.2875C4.47917 12.0958 4.71667 12 5 12H9C9.28333 12 9.52083 12.0958 9.7125 12.2875C9.90417 12.4792 10 12.7167 10 13C10 13.2833 9.90417 13.5208 9.7125 13.7125C9.52083 13.9042 9.28333 14 9 14H7C7.48333 14.6 8.0625 15.0833 8.7375 15.45C9.4125 15.8167 10.1667 16 11 16C12.0833 16 13.0583 15.6917 13.925 15.075C14.7917 14.4583 15.3917 13.6583 15.725 12.675C15.7917 12.475 15.9083 12.3125 16.075 12.1875C16.2417 12.0625 16.425 12 16.625 12C16.9917 12 17.275 12.125 17.475 12.375C17.675 12.625 17.725 12.9167 17.625 13.25C17.5083 13.6 17.3667 13.9375 17.2 14.2625C17.0333 14.5875 16.8333 14.9 16.6 15.2L20.3 18.9C20.4833 19.0833 20.575 19.3167 20.575 19.6C20.575 19.8833 20.4833 20.1167 20.3 20.3C20.1167 20.4833 19.8833 20.575 19.6 20.575C19.3167 20.575 19.0833 20.4833 18.9 20.3Z" fill="#0F0F0F"/>
</g>
</svg>
