<svg width="24" height="24" viewBox="0 0 24 24" fill="none" xmlns="http://www.w3.org/2000/svg">
<mask id="mask0_1966_15620" style="mask-type:alpha" maskUnits="userSpaceOnUse" x="0" y="0" width="24" height="24">
<rect width="24" height="24" fill="#D9D9D9"/>
</mask>
<g mask="url(#mask0_1966_15620)">
<path d="M3 18.4997V5.49973C3 5.13306 3.15 4.85389 3.45 4.66223C3.75 4.47056 4.06667 4.44139 4.4 4.57473L19.8 11.0747C20.2167 11.2581 20.425 11.5664 20.425 11.9997C20.425 12.4331 20.2167 12.7414 19.8 12.9247L4.4 19.4247C4.06667 19.5581 3.75 19.5289 3.45 19.3372C3.15 19.1456 3 18.8664 3 18.4997ZM5 16.9997L16.85 11.9997L5 6.99973V10.4997L11 11.9997L5 13.4997V16.9997Z" fill="#0F0F0F"/>
</g>
</svg>
